0
SECTION
2
HEADER
9
$INSUNITS
70
4
9
$ACADVER
1
AC1014
9
$HANDSEED
5
FFFF
0
ENDSEC
0
SECTION
2
TABLES
0
TABLE
2
VPORT
5
8
100
AcDbSymbolTable
0
ENDTAB
0
TABLE
2
LTYPE
5
5
100
AcDbSymbolTable
0
LTYPE
5
14
100
AcDbSymbolTableRecord
100
AcDbLinetypeTableRecord
2
BYBLOCK
70
0
0
LTYPE
5
15
100
AcDbSymbolTableRecord
100
AcDbLinetypeTableRecord
2
BYLAYER
70
0
0
ENDTAB
0
TABLE
2
LAYER
5
2
100
AcDbSymbolTable
70
2
0
LAYER
5
50
100
AcDbSymbolTableRecord
100
AcDbLayerTableRecord
2
0
70
0
6
CONTINUOUS
0
ENDTAB
0
TABLE
2
STYLE
5
3
100
AcDbSymbolTable
70
1
0
STYLE
5
11
100
AcDbSymbolTableRecord
100
AcDbTextStyleTableRecord
2
STANDARD
70
0
0
ENDTAB
0
TABLE
2
VIEW
5
6
100
AcDbSymbolTable
70
0
0
ENDTAB
0
TABLE
2
UCS
5
7
100
AcDbSymbolTable
70
0
0
ENDTAB
0
TABLE
2
APPID
5
9
100
AcDbSymbolTable
70
2
0
APPID
5
12
100
AcDbSymbolTableRecord
100
AcDbRegAppTableRecord
2
ACAD
70
0
0
ENDTAB
0
TABLE
2
DIMSTYLE
5
A
100
AcDbSymbolTable
70
1
0
ENDTAB
0
TABLE
2
BLOCK_RECORD
5
1
100
AcDbSymbolTable
70
1
0
BLOCK_RECORD
5
1F
100
AcDbSymbolTableRecord
100
AcDbBlockTableRecord
2
*MODEL_SPACE
0
BLOCK_RECORD
5
1B
100
AcDbSymbolTableRecord
100
AcDbBlockTableRecord
2
*PAPER_SPACE
0
ENDTAB
0
ENDSEC
0
SECTION
2
BLOCKS
0
BLOCK
5
20
100
AcDbEntity
100
AcDbBlockBegin
2
*MODEL_SPACE
0
ENDBLK
5
21
100
AcDbEntity
100
AcDbBlockEnd
0
BLOCK
5
1C
100
AcDbEntity
100
AcDbBlockBegin
2
*PAPER_SPACE
0
ENDBLK
5
1D
100
AcDbEntity
100
AcDbBlockEnd
0
ENDSEC
0
SECTION
2
ENTITIES
0
LWPOLYLINE
5
100
100
AcDbEntity
8
0
100
AcDbPolyline
90
204
70
1
43
0.0
10
-0.49999999999999956
20
813.29166666666674
10
0
20
813.29166666666674
10
0
20
803.25000000000023
10
-7.75
20
803.25000000000023
10
-7.75
20
800.00000000000011
10
0
20
800.00000000000011
10
0
20
789.95833333333348
10
-0.49999999999999961
20
789.95833333333348
10
-0.49999999999999956
20
779.95833333333348
10
0
20
779.95833333333348
10
0
20
769.91666666666686
10
-7.75
20
769.91666666666686
10
-7.75
20
766.66666666666686
10
0
20
766.66666666666686
10
0
20
756.62500000000011
10
-0.49999999999999961
20
756.62500000000011
10
-0.49999999999999956
20
746.62500000000011
10
0
20
746.62500000000011
10
0
20
736.58333333333348
10
-7.75
20
736.58333333333348
10
-7.75
20
733.33333333333348
10
0
20
733.33333333333348
10
0
20
723.29166666666674
10
-0.49999999999999961
20
723.29166666666674
10
-0.49999999999999956
20
713.29166666666674
10
0
20
713.29166666666674
10
0
20
703.25000000000023
10
-7.75
20
703.25000000000023
10
-7.75
20
700.00000000000011
10
0
20
700.00000000000011
10
0
20
689.95833333333348
10
-0.49999999999999961
20
689.95833333333348
10
-0.49999999999999956
20
679.95833333333348
10
0
20
679.95833333333348
10
0
20
669.91666666666686
10
-7.75
20
669.91666666666686
10
-7.75
20
666.66666666666686
10
0
20
666.66666666666686
10
0
20
656.62500000000011
10
-0.49999999999999961
20
656.62500000000011
10
-0.49999999999999956
20
646.62500000000011
10
0
20
646.62500000000011
10
0
20
636.58333333333348
10
-7.75
20
636.58333333333348
10
-7.75
20
633.33333333333348
10
0
20
633.33333333333348
10
0
20
623.29166666666674
10
-0.49999999999999961
20
623.29166666666674
10
-0.49999999999999956
20
613.29166666666674
10
0
20
613.29166666666674
10
0
20
603.25000000000023
10
-7.75
20
603.25000000000023
10
-7.75
20
600.00000000000011
10
0
20
600.00000000000011
10
0
20
589.95833333333348
10
-0.49999999999999961
20
589.95833333333348
10
-0.49999999999999956
20
579.95833333333348
10
0
20
579.95833333333348
10
0
20
569.91666666666686
10
-7.75
20
569.91666666666686
10
-7.75
20
566.66666666666674
10
0
20
566.66666666666674
10
0
20
556.62500000000011
10
-0.49999999999999961
20
556.62500000000011
10
-0.49999999999999956
20
546.62500000000011
10
0
20
546.62500000000011
10
0
20
536.58333333333348
10
-7.75
20
536.58333333333348
10
-7.75
20
533.33333333333348
10
0
20
533.33333333333348
10
0
20
523.29166666666674
10
-0.49999999999999961
20
523.29166666666674
10
-0.49999999999999956
20
513.29166666666674
10
0
20
513.29166666666674
10
0
20
503.25000000000011
10
-7.75
20
503.25000000000011
10
-7.75
20
500.00000000000006
10
0
20
500.00000000000006
10
0
20
489.95833333333337
10
-0.49999999999999961
20
489.95833333333337
10
-0.49999999999999956
20
479.95833333333337
10
0
20
479.95833333333337
10
0
20
469.91666666666674
10
-7.75
20
469.91666666666674
10
-7.75
20
466.66666666666674
10
0
20
466.66666666666674
10
0
20
456.62500000000011
10
-0.49999999999999961
20
456.62500000000011
10
-0.49999999999999956
20
446.62500000000011
10
0
20
446.62500000000011
10
0
20
436.58333333333348
10
-7.75
20
436.58333333333348
10
-7.75
20
433.33333333333343
10
0
20
433.33333333333343
10
0
20
423.29166666666674
10
-0.49999999999999961
20
423.29166666666674
10
-0.49999999999999956
20
413.2916666666668
10
0
20
413.2916666666668
10
0
20
403.25000000000011
10
-7.75
20
403.25000000000011
10
-7.75
20
400.00000000000006
10
0
20
400.00000000000006
10
0
20
389.95833333333337
10
-0.49999999999999961
20
389.95833333333337
10
-0.49999999999999956
20
379.95833333333337
10
0
20
379.95833333333337
10
0
20
369.91666666666674
10
-7.75
20
369.91666666666674
10
-7.75
20
366.66666666666674
10
0
20
366.66666666666674
10
0
20
356.62500000000011
10
-0.49999999999999961
20
356.62500000000011
10
-0.49999999999999956
20
346.62500000000011
10
0
20
346.62500000000011
10
0
20
336.58333333333348
10
-7.75
20
336.58333333333348
10
-7.75
20
333.33333333333343
10
0
20
333.33333333333343
10
0
20
323.29166666666674
10
-0.49999999999999961
20
323.29166666666674
10
-0.49999999999999956
20
313.29166666666674
10
0
20
313.29166666666674
10
0
20
303.25
10
-7.75
20
303.25
10
-7.75
20
300.00000000000006
10
0
20
300.00000000000006
10
0
20
289.95833333333337
10
-0.49999999999999961
20
289.95833333333337
10
-0.49999999999999956
20
279.95833333333337
10
0
20
279.95833333333337
10
0
20
269.91666666666674
10
-7.75
20
269.91666666666674
10
-7.75
20
266.66666666666674
10
0
20
266.66666666666674
10
0
20
256.625
10
-0.49999999999999961
20
256.625
10
-0.49999999999999956
20
246.625
10
0
20
246.625
10
0
20
236.58333333333331
10
-7.75
20
236.58333333333331
10
-7.75
20
233.33333333333337
10
0
20
233.33333333333337
10
0
20
223.29166666666666
10
-0.49999999999999961
20
223.29166666666666
10
-0.49999999999999956
20
213.29166666666666
10
0
20
213.29166666666666
10
0
20
203.25000000000003
10
-7.75
20
203.25000000000003
10
-7.75
20
200
10
0
20
200
10
0
20
189.95833333333337
10
-0.49999999999999961
20
189.95833333333337
10
-0.49999999999999956
20
179.95833333333337
10
0
20
179.95833333333337
10
0
20
169.91666666666674
10
-7.75
20
169.91666666666674
10
-7.75
20
166.66666666666671
10
0
20
166.66666666666671
10
0
20
156.62500000000009
10
-0.49999999999999961
20
156.62500000000009
10
-0.49999999999999956
20
146.62500000000009
10
0
20
146.62500000000009
10
0
20
136.58333333333331
10
-7.75
20
136.58333333333331
10
-7.75
20
133.33333333333343
10
0
20
133.33333333333343
10
0
20
123.29166666666666
10
-0.49999999999999961
20
123.29166666666666
10
-0.49999999999999956
20
113.29166666666666
10
0
20
113.29166666666666
10
0
20
103.25000000000003
10
-7.75
20
103.25000000000003
10
-7.75
20
100
10
0
20
100
10
0
20
89.958333333333371
10
-0.49999999999999961
20
89.958333333333371
10
-0.49999999999999956
20
79.958333333333371
10
0
20
79.958333333333371
10
0
20
69.916666666666742
10
-7.75
20
69.916666666666742
10
-7.75
20
66.666666666666714
10
0
20
66.666666666666714
10
0
20
56.624999999999943
10
-0.49999999999999961
20
56.624999999999943
10
-0.49999999999999956
20
46.624999999999943
10
0
20
46.624999999999943
10
0
20
36.583333333333314
10
-7.75
20
36.583333333333314
10
-7.75
20
33.333333333333286
10
0
20
33.333333333333286
10
0
20
23.291666666666657
10
-0.49999999999999961
20
23.291666666666657
10
-0.49999999999999961
20
13.291666666666657
10
0
20
13.291666666666657
10
0
20
3.2500000000000284
10
-7.75
20
3.2500000000000284
10
-7.75
20
0
10
-15
20
0
10
-15
20
836.58333333333348
10
-7.75
20
836.58333333333348
10
-7.75
20
833.33333333333348
10
0
20
833.33333333333348
10
0
20
823.29166666666674
10
-0.49999999999999961
20
823.29166666666674
0
LWPOLYLINE
5
101
100
AcDbEntity
8
0
100
AcDbPolyline
90
204
70
1
43
0.0
10
0.17999999999999999
20
833.51333333333343
10
0.17999999999999994
20
823.11166666666679
10
-0.31999999999999967
20
823.11166666666679
10
-0.31999999999999962
20
813.47166666666681
10
0.17999999999999999
20
813.47166666666681
10
0.18000000000000016
20
803.07000000000016
10
-7.5700000000000003
20
803.07000000000016
10
-7.5700000000000003
20
800.18000000000018
10
0.17999999999999999
20
800.18000000000018
10
0.17999999999999994
20
789.77833333333353
10
-0.31999999999999967
20
789.77833333333353
10
-0.31999999999999962
20
780.13833333333355
10
0.17999999999999999
20
780.13833333333355
10
0.18000000000000016
20
769.73666666666691
10
-7.5700000000000003
20
769.73666666666691
10
-7.5700000000000003
20
766.84666666666681
10
0.17999999999999999
20
766.84666666666681
10
0.17999999999999994
20
756.44500000000005
10
-0.31999999999999967
20
756.44500000000005
10
-0.31999999999999962
20
746.80500000000006
10
0.17999999999999999
20
746.80500000000006
10
0.18000000000000016
20
736.40333333333342
10
-7.5700000000000003
20
736.40333333333342
10
-7.5700000000000003
20
733.51333333333343
10
0.17999999999999999
20
733.51333333333343
10
0.17999999999999994
20
723.11166666666679
10
-0.31999999999999967
20
723.11166666666679
10
-0.31999999999999962
20
713.47166666666681
10
0.17999999999999999
20
713.47166666666681
10
0.18000000000000016
20
703.07000000000016
10
-7.5700000000000003
20
703.07000000000016
10
-7.5700000000000003
20
700.18000000000018
10
0.17999999999999999
20
700.18000000000018
10
0.17999999999999994
20
689.77833333333353
10
-0.31999999999999967
20
689.77833333333353
10
-0.31999999999999962
20
680.13833333333355
10
0.17999999999999999
20
680.13833333333355
10
0.18000000000000016
20
669.73666666666691
10
-7.5700000000000003
20
669.73666666666691
10
-7.5700000000000003
20
666.84666666666681
10
0.17999999999999999
20
666.84666666666681
10
0.17999999999999994
20
656.44500000000005
10
-0.31999999999999967
20
656.44500000000005
10
-0.31999999999999962
20
646.80500000000006
10
0.17999999999999999
20
646.80500000000006
10
0.18000000000000016
20
636.40333333333342
10
-7.5700000000000003
20
636.40333333333342
10
-7.5700000000000003
20
633.51333333333343
10
0.17999999999999999
20
633.51333333333343
10
0.17999999999999994
20
623.11166666666679
10
-0.31999999999999967
20
623.11166666666679
10
-0.31999999999999962
20
613.47166666666681
10
0.17999999999999999
20
613.47166666666681
10
0.18000000000000016
20
603.07000000000016
10
-7.5700000000000003
20
603.07000000000016
10
-7.5700000000000003
20
600.18000000000018
10
0.17999999999999999
20
600.18000000000018
10
0.17999999999999994
20
589.77833333333342
10
-0.31999999999999967
20
589.77833333333342
10
-0.31999999999999962
20
580.13833333333355
10
0.17999999999999999
20
580.13833333333355
10
0.18000000000000016
20
569.73666666666679
10
-7.5700000000000003
20
569.73666666666679
10
-7.5700000000000003
20
566.84666666666681
10
0.17999999999999999
20
566.84666666666681
10
0.17999999999999994
20
556.44500000000005
10
-0.31999999999999967
20
556.44500000000005
10
-0.31999999999999962
20
546.80500000000006
10
0.17999999999999999
20
546.80500000000006
10
0.18000000000000016
20
536.40333333333342
10
-7.5700000000000003
20
536.40333333333342
10
-7.5700000000000003
20
533.51333333333343
10
0.17999999999999999
20
533.51333333333343
10
0.17999999999999994
20
523.11166666666668
10
-0.31999999999999967
20
523.11166666666668
10
-0.31999999999999962
20
513.47166666666681
10
0.17999999999999999
20
513.47166666666681
10
0.18000000000000016
20
503.07000000000011
10
-7.5700000000000003
20
503.07000000000011
10
-7.5700000000000003
20
500.18000000000006
10
0.17999999999999999
20
500.18000000000006
10
0.17999999999999994
20
489.77833333333336
10
-0.31999999999999967
20
489.77833333333336
10
-0.31999999999999962
20
480.13833333333338
10
0.17999999999999999
20
480.13833333333338
10
0.18000000000000016
20
469.73666666666674
10
-7.5700000000000003
20
469.73666666666674
10
-7.5700000000000003
20
466.84666666666669
10
0.17999999999999999
20
466.84666666666669
10
0.17999999999999994
20
456.44500000000005
10
-0.31999999999999967
20
456.44500000000005
10
-0.31999999999999962
20
446.80500000000006
10
0.17999999999999999
20
446.80500000000006
10
0.18000000000000016
20
436.40333333333342
10
-7.5700000000000003
20
436.40333333333342
10
-7.5700000000000003
20
433.51333333333343
10
0.17999999999999999
20
433.51333333333343
10
0.17999999999999994
20
423.11166666666674
10
-0.31999999999999967
20
423.11166666666674
10
-0.31999999999999962
20
413.47166666666681
10
0.17999999999999999
20
413.47166666666681
10
0.18000000000000016
20
403.07000000000011
10
-7.5700000000000003
20
403.07000000000011
10
-7.5700000000000003
20
400.18000000000006
10
0.17999999999999999
20
400.18000000000006
10
0.17999999999999994
20
389.77833333333336
10
-0.31999999999999967
20
389.77833333333336
10
-0.31999999999999962
20
380.13833333333338
10
0.17999999999999999
20
380.13833333333338
10
0.18000000000000016
20
369.73666666666674
10
-7.5700000000000003
20
369.73666666666674
10
-7.5700000000000003
20
366.84666666666669
10
0.17999999999999999
20
366.84666666666669
10
0.17999999999999994
20
356.44500000000005
10
-0.31999999999999967
20
356.44500000000005
10
-0.31999999999999962
20
346.80500000000006
10
0.17999999999999999
20
346.80500000000006
10
0.18000000000000016
20
336.40333333333342
10
-7.5700000000000003
20
336.40333333333342
10
-7.5700000000000003
20
333.51333333333343
10
0.17999999999999999
20
333.51333333333343
10
0.17999999999999994
20
323.11166666666674
10
-0.31999999999999967
20
323.11166666666674
10
-0.31999999999999962
20
313.47166666666675
10
0.17999999999999999
20
313.47166666666675
10
0.18000000000000016
20
303.07000000000005
10
-7.5700000000000003
20
303.07000000000005
10
-7.5700000000000003
20
300.18000000000006
10
0.17999999999999999
20
300.18000000000006
10
0.17999999999999994
20
289.77833333333336
10
-0.31999999999999967
20
289.77833333333336
10
-0.31999999999999962
20
280.13833333333338
10
0.17999999999999999
20
280.13833333333338
10
0.18000000000000016
20
269.73666666666674
10
-7.5700000000000003
20
269.73666666666674
10
-7.5700000000000003
20
266.84666666666669
10
0.17999999999999999
20
266.84666666666669
10
0.17999999999999994
20
256.44499999999999
10
-0.31999999999999967
20
256.44499999999999
10
-0.31999999999999962
20
246.80500000000001
10
0.17999999999999999
20
246.80500000000001
10
0.18000000000000016
20
236.40333333333331
10
-7.5700000000000003
20
236.40333333333331
10
-7.5700000000000003
20
233.51333333333338
10
0.17999999999999999
20
233.51333333333338
10
0.17999999999999994
20
223.11166666666665
10
-0.31999999999999967
20
223.11166666666665
10
-0.31999999999999962
20
213.47166666666666
10
0.17999999999999999
20
213.47166666666666
10
0.18000000000000016
20
203.07000000000002
10
-7.5700000000000003
20
203.07000000000002
10
-7.5700000000000003
20
200.18000000000001
10
0.17999999999999999
20
200.18000000000001
10
0.17999999999999994
20
189.77833333333336
10
-0.31999999999999967
20
189.77833333333336
10
-0.31999999999999962
20
180.13833333333338
10
0.17999999999999999
20
180.13833333333338
10
0.18000000000000016
20
169.73666666666674
10
-7.5700000000000003
20
169.73666666666674
10
-7.5700000000000003
20
166.84666666666672
10
0.17999999999999999
20
166.84666666666672
10
0.17999999999999994
20
156.44500000000008
10
-0.31999999999999967
20
156.44500000000008
10
-0.31999999999999962
20
146.80500000000009
10
0.17999999999999999
20
146.80500000000009
10
0.18000000000000016
20
136.40333333333331
10
-7.5700000000000003
20
136.40333333333331
10
-7.5700000000000003
20
133.51333333333343
10
0.17999999999999999
20
133.51333333333343
10
0.17999999999999994
20
123.11166666666665
10
-0.31999999999999967
20
123.11166666666665
10
-0.31999999999999962
20
113.47166666666666
10
0.17999999999999999
20
113.47166666666666
10
0.18000000000000016
20
103.07000000000002
10
-7.5700000000000003
20
103.07000000000002
10
-7.5700000000000003
20
100.18000000000001
10
0.17999999999999999
20
100.18000000000001
10
0.17999999999999994
20
89.778333333333364
10
-0.31999999999999967
20
89.778333333333364
10
-0.31999999999999962
20
80.138333333333378
10
0.17999999999999999
20
80.138333333333378
10
0.18000000000000016
20
69.73666666666675
10
-7.5700000000000003
20
69.73666666666675
10
-7.5700000000000003
20
66.846666666666707
10
0.17999999999999999
20
66.846666666666707
10
0.17999999999999994
20
56.444999999999943
10
-0.31999999999999967
20
56.444999999999943
10
-0.31999999999999962
20
46.804999999999943
10
0.17999999999999999
20
46.804999999999943
10
0.18000000000000016
20
36.403333333333315
10
-7.5700000000000003
20
36.403333333333315
10
-7.5700000000000003
20
33.513333333333286
10
0.17999999999999999
20
33.513333333333286
10
0.18000000000000002
20
23.111666666666657
10
-0.31999999999999962
20
23.111666666666657
10
-0.31999999999999962
20
13.471666666666657
10
0.17999999999999999
20
13.471666666666657
10
0.18000000000000016
20
3.0700000000000283
10
-7.5700000000000003
20
3.0700000000000283
10
-7.5700000000000003
20
-0.17999999999999999
10
-15.18
20
-0.18000000000000682
10
-15.18
20
836.76333333333343
10
-7.5700000000000003
20
836.76333333333343
10
-7.5700000000000003
20
833.51333333333343
0
ENDSEC
0
SECTION
2
OBJECTS
0
DICTIONARY
5
C
100
AcDbDictionary
3
ACAD_GROUP
350
D
3
ACAD_MLINESTYLE
350
17
0
DICTIONARY
5
D
100
AcDbDictionary
0
DICTIONARY
5
1A
330
C
100
AcDbDictionary
0
DICTIONARY
5
17
100
AcDbDictionary
0
ENDSEC
0
EOF
