0
SECTION
2
HEADER
9
$INSUNITS
70
4
9
$ACADVER
1
AC1014
9
$HANDSEED
5
FFFF
0
ENDSEC
0
SECTION
2
TABLES
0
TABLE
2
VPORT
5
8
100
AcDbSymbolTable
0
ENDTAB
0
TABLE
2
LTYPE
5
5
100
AcDbSymbolTable
0
LTYPE
5
14
100
AcDbSymbolTableRecord
100
AcDbLinetypeTableRecord
2
BYBLOCK
70
0
0
LTYPE
5
15
100
AcDbSymbolTableRecord
100
AcDbLinetypeTableRecord
2
BYLAYER
70
0
0
ENDTAB
0
TABLE
2
LAYER
5
2
100
AcDbSymbolTable
70
2
0
LAYER
5
50
100
AcDbSymbolTableRecord
100
AcDbLayerTableRecord
2
0
70
0
6
CONTINUOUS
0
ENDTAB
0
TABLE
2
STYLE
5
3
100
AcDbSymbolTable
70
1
0
STYLE
5
11
100
AcDbSymbolTableRecord
100
AcDbTextStyleTableRecord
2
STANDARD
70
0
0
ENDTAB
0
TABLE
2
VIEW
5
6
100
AcDbSymbolTable
70
0
0
ENDTAB
0
TABLE
2
UCS
5
7
100
AcDbSymbolTable
70
0
0
ENDTAB
0
TABLE
2
APPID
5
9
100
AcDbSymbolTable
70
2
0
APPID
5
12
100
AcDbSymbolTableRecord
100
AcDbRegAppTableRecord
2
ACAD
70
0
0
ENDTAB
0
TABLE
2
DIMSTYLE
5
A
100
AcDbSymbolTable
70
1
0
ENDTAB
0
TABLE
2
BLOCK_RECORD
5
1
100
AcDbSymbolTable
70
1
0
BLOCK_RECORD
5
1F
100
AcDbSymbolTableRecord
100
AcDbBlockTableRecord
2
*MODEL_SPACE
0
BLOCK_RECORD
5
1B
100
AcDbSymbolTableRecord
100
AcDbBlockTableRecord
2
*PAPER_SPACE
0
ENDTAB
0
ENDSEC
0
SECTION
2
BLOCKS
0
BLOCK
5
20
100
AcDbEntity
100
AcDbBlockBegin
2
*MODEL_SPACE
0
ENDBLK
5
21
100
AcDbEntity
100
AcDbBlockEnd
0
BLOCK
5
1C
100
AcDbEntity
100
AcDbBlockBegin
2
*PAPER_SPACE
0
ENDBLK
5
1D
100
AcDbEntity
100
AcDbBlockEnd
0
ENDSEC
0
SECTION
2
ENTITIES
0
LWPOLYLINE
5
100
100
AcDbEntity
8
0
100
AcDbPolyline
90
204
70
1
43
0.0
10
-0.49999999999999944
20
813.39166666666688
10
0
20
813.39166666666688
10
0
20
803.45000000000016
10
-7.9500000000000002
20
803.45000000000016
10
-7.9500000000000002
20
800.00000000000011
10
0
20
800.00000000000011
10
0
20
790.05833333333362
10
-0.49999999999999944
20
790.05833333333362
10
-0.49999999999999944
20
780.05833333333362
10
0
20
780.05833333333362
10
0
20
770.11666666666679
10
-7.9500000000000002
20
770.11666666666679
10
-7.9500000000000002
20
766.66666666666686
10
0
20
766.66666666666686
10
0
20
756.72500000000014
10
-0.49999999999999944
20
756.72500000000014
10
-0.49999999999999944
20
746.72500000000014
10
0
20
746.72500000000014
10
0
20
736.78333333333342
10
-7.9500000000000002
20
736.78333333333342
10
-7.9500000000000002
20
733.33333333333348
10
0
20
733.33333333333348
10
0
20
723.39166666666688
10
-0.49999999999999944
20
723.39166666666688
10
-0.49999999999999944
20
713.39166666666688
10
0
20
713.39166666666688
10
0
20
703.45000000000016
10
-7.9500000000000002
20
703.45000000000016
10
-7.9500000000000002
20
700.00000000000011
10
0
20
700.00000000000011
10
0
20
690.05833333333362
10
-0.49999999999999944
20
690.05833333333362
10
-0.49999999999999944
20
680.05833333333362
10
0
20
680.05833333333362
10
0
20
670.11666666666679
10
-7.9500000000000002
20
670.11666666666679
10
-7.9500000000000002
20
666.66666666666686
10
0
20
666.66666666666686
10
0
20
656.72500000000014
10
-0.49999999999999944
20
656.72500000000014
10
-0.49999999999999944
20
646.72500000000014
10
0
20
646.72500000000014
10
0
20
636.78333333333353
10
-7.9500000000000002
20
636.78333333333353
10
-7.9500000000000002
20
633.33333333333348
10
0
20
633.33333333333348
10
0
20
623.39166666666677
10
-0.49999999999999944
20
623.39166666666677
10
-0.49999999999999944
20
613.39166666666677
10
0
20
613.39166666666677
10
0
20
603.45000000000016
10
-7.9500000000000002
20
603.45000000000016
10
-7.9500000000000002
20
600.00000000000011
10
0
20
600.00000000000011
10
0
20
590.05833333333339
10
-0.49999999999999944
20
590.05833333333339
10
-0.49999999999999944
20
580.05833333333339
10
0
20
580.05833333333339
10
0
20
570.11666666666679
10
-7.9500000000000002
20
570.11666666666679
10
-7.9500000000000002
20
566.66666666666674
10
0
20
566.66666666666674
10
0
20
556.72500000000002
10
-0.49999999999999944
20
556.72500000000002
10
-0.49999999999999944
20
546.72500000000002
10
0
20
546.72500000000002
10
0
20
536.78333333333353
10
-7.9500000000000002
20
536.78333333333353
10
-7.9500000000000002
20
533.33333333333348
10
0
20
533.33333333333348
10
0
20
523.39166666666665
10
-0.49999999999999944
20
523.39166666666665
10
-0.49999999999999944
20
513.39166666666665
10
0
20
513.39166666666665
10
0
20
503.45000000000016
10
-7.9500000000000002
20
503.45000000000016
10
-7.9500000000000002
20
500.00000000000006
10
0
20
500.00000000000006
10
0
20
490.05833333333334
10
-0.49999999999999944
20
490.05833333333334
10
-0.49999999999999944
20
480.05833333333334
10
0
20
480.05833333333334
10
0
20
470.11666666666679
10
-7.9500000000000002
20
470.11666666666679
10
-7.9500000000000002
20
466.66666666666674
10
0
20
466.66666666666674
10
0
20
456.72500000000008
10
-0.49999999999999944
20
456.72500000000008
10
-0.49999999999999944
20
446.72500000000008
10
0
20
446.72500000000008
10
0
20
436.78333333333347
10
-7.9500000000000002
20
436.78333333333347
10
-7.9500000000000002
20
433.33333333333343
10
0
20
433.33333333333343
10
0
20
423.39166666666671
10
-0.49999999999999944
20
423.39166666666671
10
-0.49999999999999944
20
413.39166666666671
10
0
20
413.39166666666671
10
0
20
403.45000000000016
10
-7.9500000000000002
20
403.45000000000016
10
-7.9500000000000002
20
400.00000000000006
10
0
20
400.00000000000006
10
0
20
390.05833333333334
10
-0.49999999999999944
20
390.05833333333334
10
-0.49999999999999944
20
380.05833333333334
10
0
20
380.05833333333334
10
0
20
370.11666666666679
10
-7.9500000000000002
20
370.11666666666679
10
-7.9500000000000002
20
366.66666666666674
10
0
20
366.66666666666674
10
0
20
356.72500000000008
10
-0.49999999999999944
20
356.72500000000008
10
-0.49999999999999944
20
346.72500000000008
10
0
20
346.72500000000008
10
0
20
336.78333333333347
10
-7.9500000000000002
20
336.78333333333347
10
-7.9500000000000002
20
333.33333333333343
10
0
20
333.33333333333343
10
0
20
323.39166666666671
10
-0.49999999999999944
20
323.39166666666671
10
-0.49999999999999944
20
313.39166666666671
10
0
20
313.39166666666671
10
0
20
303.45000000000005
10
-7.9500000000000002
20
303.45000000000005
10
-7.9500000000000002
20
300.00000000000006
10
0
20
300.00000000000006
10
0
20
290.05833333333339
10
-0.49999999999999944
20
290.05833333333339
10
-0.49999999999999944
20
280.05833333333334
10
0
20
280.05833333333334
10
0
20
270.11666666666667
10
-7.9500000000000002
20
270.11666666666667
10
-7.9500000000000002
20
266.66666666666674
10
0
20
266.66666666666674
10
0
20
256.72500000000002
10
-0.49999999999999944
20
256.72500000000002
10
-0.49999999999999944
20
246.72499999999999
10
0
20
246.72499999999999
10
0
20
236.78333333333336
10
-7.9500000000000002
20
236.78333333333336
10
-7.9500000000000002
20
233.33333333333337
10
0
20
233.33333333333337
10
0
20
223.39166666666671
10
-0.49999999999999944
20
223.39166666666671
10
-0.49999999999999944
20
213.39166666666671
10
0
20
213.39166666666671
10
0
20
203.44999999999999
10
-7.9500000000000002
20
203.44999999999999
10
-7.9500000000000002
20
200
10
0
20
200
10
0
20
190.05833333333342
10
-0.49999999999999944
20
190.05833333333342
10
-0.49999999999999944
20
180.05833333333334
10
0
20
180.05833333333334
10
0
20
170.1166666666667
10
-7.9500000000000002
20
170.1166666666667
10
-7.9500000000000002
20
166.66666666666671
10
0
20
166.66666666666671
10
0
20
156.72499999999999
10
-0.49999999999999944
20
156.72499999999999
10
-0.49999999999999944
20
146.72499999999999
10
0
20
146.72499999999999
10
0
20
136.78333333333327
10
-7.9500000000000002
20
136.78333333333327
10
-7.9500000000000002
20
133.33333333333329
10
0
20
133.33333333333329
10
0
20
123.39166666666671
10
-0.49999999999999944
20
123.39166666666671
10
-0.49999999999999944
20
113.39166666666671
10
0
20
113.39166666666671
10
0
20
103.44999999999999
10
-7.9500000000000002
20
103.44999999999999
10
-7.9500000000000002
20
100
10
0
20
100
10
0
20
90.05833333333328
10
-0.49999999999999944
20
90.05833333333328
10
-0.49999999999999944
20
80.058333333333422
10
0
20
80.058333333333422
10
0
20
70.116666666666703
10
-7.9500000000000002
20
70.116666666666703
10
-7.9500000000000002
20
66.666666666666714
10
0
20
66.666666666666714
10
0
20
56.724999999999994
10
-0.49999999999999944
20
56.724999999999994
10
-0.49999999999999944
20
46.724999999999994
10
0
20
46.724999999999994
10
0
20
36.783333333333275
10
-7.9500000000000002
20
36.783333333333275
10
-7.9500000000000002
20
33.333333333333286
10
0
20
33.333333333333286
10
0
20
23.391666666666708
10
-0.49999999999999944
20
23.391666666666708
10
-0.49999999999999944
20
13.391666666666708
10
0
20
13.391666666666708
10
0
20
3.4499999999999886
10
-7.9500000000000002
20
3.4499999999999886
10
-7.9500000000000002
20
0
10
-15
20
0
10
-15
20
836.78333333333342
10
-7.9500000000000002
20
836.78333333333342
10
-7.9500000000000002
20
833.33333333333348
10
0
20
833.33333333333348
10
0
20
823.39166666666688
10
-0.49999999999999944
20
823.39166666666688
0
LWPOLYLINE
5
101
100
AcDbEntity
8
0
100
AcDbPolyline
90
204
70
1
43
0.0
10
0.17999999999999999
20
433.51333333333343
10
0.18000000000000002
20
423.2116666666667
10
-0.31999999999999945
20
423.2116666666667
10
-0.31999999999999945
20
413.57166666666672
10
0.17999999999999999
20
413.57166666666672
10
0.18000000000000016
20
403.2700000000001
10
-7.7700000000000005
20
403.2700000000001
10
-7.7700000000000005
20
400.18000000000006
10
0.17999999999999999
20
400.18000000000006
10
0.18000000000000002
20
389.87833333333333
10
-0.31999999999999945
20
389.87833333333333
10
-0.31999999999999945
20
380.23833333333334
10
0.17999999999999999
20
380.23833333333334
10
0.18000000000000016
20
369.93666666666678
10
-7.7700000000000005
20
369.93666666666678
10
-7.7700000000000005
20
366.84666666666669
10
0.17999999999999999
20
366.84666666666669
10
0.18000000000000002
20
356.54500000000007
10
-0.31999999999999945
20
356.54500000000007
10
-0.31999999999999945
20
346.90500000000009
10
0.17999999999999999
20
346.90500000000009
10
0.18000000000000016
20
336.60333333333347
10
-7.7700000000000005
20
336.60333333333347
10
-7.7700000000000005
20
333.51333333333343
10
0.17999999999999999
20
333.51333333333343
10
0.18000000000000002
20
323.2116666666667
10
-0.31999999999999945
20
323.2116666666667
10
-0.31999999999999945
20
313.57166666666672
10
0.17999999999999999
20
313.57166666666672
10
0.18000000000000016
20
303.27000000000004
10
-7.7700000000000005
20
303.27000000000004
10
-7.7700000000000005
20
300.18000000000006
10
0.17999999999999999
20
300.18000000000006
10
0.18000000000000002
20
289.87833333333344
10
-0.31999999999999945
20
289.87833333333344
10
-0.31999999999999945
20
280.23833333333334
10
0.17999999999999999
20
280.23833333333334
10
0.18000000000000016
20
269.93666666666672
10
-7.7700000000000005
20
269.93666666666672
10
-7.7700000000000005
20
266.84666666666669
10
0.17999999999999999
20
266.84666666666669
10
0.18000000000000002
20
256.54499999999996
10
-0.31999999999999945
20
256.54499999999996
10
-0.31999999999999945
20
246.905
10
0.17999999999999999
20
246.905
10
0.18000000000000016
20
236.60333333333335
10
-7.7700000000000005
20
236.60333333333335
10
-7.7700000000000005
20
233.51333333333338
10
0.17999999999999999
20
233.51333333333338
10
0.18000000000000002
20
223.2116666666667
10
-0.31999999999999945
20
223.2116666666667
10
-0.31999999999999945
20
213.57166666666672
10
0.17999999999999999
20
213.57166666666672
10
0.18000000000000016
20
203.26999999999998
10
-7.7700000000000005
20
203.26999999999998
10
-7.7700000000000005
20
200.18000000000001
10
0.17999999999999999
20
200.18000000000001
10
0.18000000000000002
20
189.87833333333342
10
-0.31999999999999945
20
189.87833333333342
10
-0.31999999999999945
20
180.23833333333334
10
0.17999999999999999
20
180.23833333333334
10
0.18000000000000016
20
169.9366666666667
10
-7.7700000000000005
20
169.9366666666667
10
-7.7700000000000005
20
166.84666666666672
10
0.17999999999999999
20
166.84666666666672
10
0.18000000000000002
20
156.54499999999999
10
-0.31999999999999945
20
156.54499999999999
10
-0.31999999999999945
20
146.905
10
0.17999999999999999
20
146.905
10
0.18000000000000016
20
136.60333333333327
10
-7.7700000000000005
20
136.60333333333327
10
-7.7700000000000005
20
133.51333333333329
10
0.17999999999999999
20
133.51333333333329
10
0.18000000000000002
20
123.2116666666667
10
-0.31999999999999945
20
123.2116666666667
10
-0.31999999999999945
20
113.57166666666672
10
0.17999999999999999
20
113.57166666666672
10
0.18000000000000016
20
103.26999999999998
10
-7.7700000000000005
20
103.26999999999998
10
-7.7700000000000005
20
100.18000000000001
10
0.17999999999999999
20
100.18000000000001
10
0.18000000000000002
20
89.878333333333273
10
-0.31999999999999945
20
89.878333333333273
10
-0.31999999999999945
20
80.238333333333429
10
0.17999999999999999
20
80.238333333333429
10
0.18000000000000016
20
69.93666666666671
10
-7.7700000000000005
20
69.93666666666671
10
-7.7700000000000005
20
66.846666666666707
10
0.17999999999999999
20
66.846666666666707
10
0.18000000000000002
20
56.544999999999995
10
-0.31999999999999945
20
56.544999999999995
10
-0.31999999999999945
20
46.904999999999994
10
0.17999999999999999
20
46.904999999999994
10
0.18000000000000016
20
36.603333333333275
10
-7.7700000000000005
20
36.603333333333275
10
-7.7700000000000005
20
33.513333333333286
10
0.17999999999999999
20
33.513333333333286
10
0.18000000000000002
20
23.211666666666709
10
-0.31999999999999945
20
23.211666666666709
10
-0.31999999999999945
20
13.571666666666708
10
0.17999999999999999
20
13.571666666666708
10
0.18000000000000016
20
3.2699999999999885
10
-7.7700000000000005
20
3.2699999999999885
10
-7.7700000000000005
20
-0.17999999999999999
10
-15.18
20
-0.18000000000000682
10
-15.18
20
836.96333333333337
10
-7.7700000000000005
20
836.96333333333337
10
-7.7700000000000005
20
833.51333333333343
10
0.17999999999999999
20
833.51333333333343
10
0.18000000000000002
20
823.21166666666682
10
-0.31999999999999945
20
823.21166666666682
10
-0.31999999999999945
20
813.57166666666683
10
0.17999999999999999
20
813.57166666666683
10
0.18000000000000016
20
803.2700000000001
10
-7.7700000000000005
20
803.2700000000001
10
-7.7700000000000005
20
800.18000000000018
10
0.17999999999999999
20
800.18000000000018
10
0.18000000000000002
20
789.87833333333356
10
-0.31999999999999945
20
789.87833333333356
10
-0.31999999999999945
20
780.23833333333357
10
0.17999999999999999
20
780.23833333333357
10
0.18000000000000016
20
769.93666666666684
10
-7.7700000000000005
20
769.93666666666684
10
-7.7700000000000005
20
766.84666666666681
10
0.17999999999999999
20
766.84666666666681
10
0.18000000000000002
20
756.54500000000007
10
-0.31999999999999945
20
756.54500000000007
10
-0.31999999999999945
20
746.9050000000002
10
0.17999999999999999
20
746.9050000000002
10
0.18000000000000016
20
736.60333333333347
10
-7.7700000000000005
20
736.60333333333347
10
-7.7700000000000005
20
733.51333333333343
10
0.17999999999999999
20
733.51333333333343
10
0.18000000000000002
20
723.21166666666682
10
-0.31999999999999945
20
723.21166666666682
10
-0.31999999999999945
20
713.57166666666683
10
0.17999999999999999
20
713.57166666666683
10
0.18000000000000016
20
703.2700000000001
10
-7.7700000000000005
20
703.2700000000001
10
-7.7700000000000005
20
700.18000000000018
10
0.17999999999999999
20
700.18000000000018
10
0.18000000000000002
20
689.87833333333356
10
-0.31999999999999945
20
689.87833333333356
10
-0.31999999999999945
20
680.23833333333357
10
0.17999999999999999
20
680.23833333333357
10
0.18000000000000016
20
669.93666666666684
10
-7.7700000000000005
20
669.93666666666684
10
-7.7700000000000005
20
666.84666666666681
10
0.17999999999999999
20
666.84666666666681
10
0.18000000000000002
20
656.54500000000007
10
-0.31999999999999945
20
656.54500000000007
10
-0.31999999999999945
20
646.9050000000002
10
0.17999999999999999
20
646.9050000000002
10
0.18000000000000016
20
636.60333333333347
10
-7.7700000000000005
20
636.60333333333347
10
-7.7700000000000005
20
633.51333333333343
10
0.17999999999999999
20
633.51333333333343
10
0.18000000000000002
20
623.21166666666682
10
-0.31999999999999945
20
623.21166666666682
10
-0.31999999999999945
20
613.57166666666683
10
0.17999999999999999
20
613.57166666666683
10
0.18000000000000016
20
603.27000000000021
10
-7.7700000000000005
20
603.27000000000021
10
-7.7700000000000005
20
600.18000000000018
10
0.17999999999999999
20
600.18000000000018
10
0.18000000000000002
20
589.87833333333344
10
-0.31999999999999945
20
589.87833333333344
10
-0.31999999999999945
20
580.23833333333346
10
0.17999999999999999
20
580.23833333333346
10
0.18000000000000016
20
569.93666666666684
10
-7.7700000000000005
20
569.93666666666684
10
-7.7700000000000005
20
566.84666666666681
10
0.17999999999999999
20
566.84666666666681
10
0.18000000000000002
20
556.54500000000007
10
-0.31999999999999945
20
556.54500000000007
10
-0.31999999999999945
20
546.90500000000009
10
0.17999999999999999
20
546.90500000000009
10
0.18000000000000016
20
536.60333333333347
10
-7.7700000000000005
20
536.60333333333347
10
-7.7700000000000005
20
533.51333333333343
10
0.17999999999999999
20
533.51333333333343
10
0.18000000000000002
20
523.2116666666667
10
-0.31999999999999945
20
523.2116666666667
10
-0.31999999999999945
20
513.57166666666672
10
0.17999999999999999
20
513.57166666666672
10
0.18000000000000016
20
503.2700000000001
10
-7.7700000000000005
20
503.2700000000001
10
-7.7700000000000005
20
500.18000000000006
10
0.17999999999999999
20
500.18000000000006
10
0.18000000000000002
20
489.87833333333333
10
-0.31999999999999945
20
489.87833333333333
10
-0.31999999999999945
20
480.23833333333334
10
0.17999999999999999
20
480.23833333333334
10
0.18000000000000016
20
469.93666666666678
10
-7.7700000000000005
20
469.93666666666678
10
-7.7700000000000005
20
466.84666666666669
10
0.17999999999999999
20
466.84666666666669
10
0.18000000000000002
20
456.54500000000007
10
-0.31999999999999945
20
456.54500000000007
10
-0.31999999999999945
20
446.90500000000009
10
0.17999999999999999
20
446.90500000000009
10
0.18000000000000016
20
436.60333333333347
10
-7.7700000000000005
20
436.60333333333347
10
-7.7700000000000005
20
433.51333333333343
0
ENDSEC
0
SECTION
2
OBJECTS
0
DICTIONARY
5
C
100
AcDbDictionary
3
ACAD_GROUP
350
D
3
ACAD_MLINESTYLE
350
17
0
DICTIONARY
5
D
100
AcDbDictionary
0
DICTIONARY
5
1A
330
C
100
AcDbDictionary
0
DICTIONARY
5
17
100
AcDbDictionary
0
ENDSEC
0
EOF
