0
SECTION
2
HEADER
9
$INSUNITS
70
4
9
$ACADVER
1
AC1014
9
$HANDSEED
5
FFFF
0
ENDSEC
0
SECTION
2
TABLES
0
TABLE
2
VPORT
5
8
100
AcDbSymbolTable
0
ENDTAB
0
TABLE
2
LTYPE
5
5
100
AcDbSymbolTable
0
LTYPE
5
14
100
AcDbSymbolTableRecord
100
AcDbLinetypeTableRecord
2
BYBLOCK
70
0
0
LTYPE
5
15
100
AcDbSymbolTableRecord
100
AcDbLinetypeTableRecord
2
BYLAYER
70
0
0
ENDTAB
0
TABLE
2
LAYER
5
2
100
AcDbSymbolTable
70
2
0
LAYER
5
50
100
AcDbSymbolTableRecord
100
AcDbLayerTableRecord
2
0
70
0
6
CONTINUOUS
0
ENDTAB
0
TABLE
2
STYLE
5
3
100
AcDbSymbolTable
70
1
0
STYLE
5
11
100
AcDbSymbolTableRecord
100
AcDbTextStyleTableRecord
2
STANDARD
70
0
0
ENDTAB
0
TABLE
2
VIEW
5
6
100
AcDbSymbolTable
70
0
0
ENDTAB
0
TABLE
2
UCS
5
7
100
AcDbSymbolTable
70
0
0
ENDTAB
0
TABLE
2
APPID
5
9
100
AcDbSymbolTable
70
2
0
APPID
5
12
100
AcDbSymbolTableRecord
100
AcDbRegAppTableRecord
2
ACAD
70
0
0
ENDTAB
0
TABLE
2
DIMSTYLE
5
A
100
AcDbSymbolTable
70
1
0
ENDTAB
0
TABLE
2
BLOCK_RECORD
5
1
100
AcDbSymbolTable
70
1
0
BLOCK_RECORD
5
1F
100
AcDbSymbolTableRecord
100
AcDbBlockTableRecord
2
*MODEL_SPACE
0
BLOCK_RECORD
5
1B
100
AcDbSymbolTableRecord
100
AcDbBlockTableRecord
2
*PAPER_SPACE
0
ENDTAB
0
ENDSEC
0
SECTION
2
BLOCKS
0
BLOCK
5
20
100
AcDbEntity
100
AcDbBlockBegin
2
*MODEL_SPACE
0
ENDBLK
5
21
100
AcDbEntity
100
AcDbBlockEnd
0
BLOCK
5
1C
100
AcDbEntity
100
AcDbBlockBegin
2
*PAPER_SPACE
0
ENDBLK
5
1D
100
AcDbEntity
100
AcDbBlockEnd
0
ENDSEC
0
SECTION
2
ENTITIES
0
LWPOLYLINE
5
100
100
AcDbEntity
8
0
100
AcDbPolyline
90
104
70
1
43
0.0
10
-5.25
20
800.00000000000011
10
0
20
800.00000000000011
10
0
20
769.66666666666686
10
-5.25
20
769.66666666666686
10
-5.25
20
766.66666666666686
10
0
20
766.66666666666686
10
0
20
736.33333333333337
10
-5.25
20
736.33333333333337
10
-5.25
20
733.33333333333348
10
0
20
733.33333333333348
10
0
20
703.00000000000011
10
-5.25
20
703.00000000000011
10
-5.25
20
700.00000000000011
10
0
20
700.00000000000011
10
0
20
669.66666666666686
10
-5.25
20
669.66666666666686
10
-5.25
20
666.66666666666686
10
0
20
666.66666666666686
10
0
20
636.33333333333337
10
-5.25
20
636.33333333333337
10
-5.25
20
633.33333333333348
10
0
20
633.33333333333348
10
0
20
603.00000000000011
10
-5.25
20
603.00000000000011
10
-5.25
20
600.00000000000011
10
0
20
600.00000000000011
10
0
20
569.66666666666674
10
-5.25
20
569.66666666666674
10
-5.25
20
566.66666666666674
10
0
20
566.66666666666674
10
0
20
536.33333333333337
10
-5.25
20
536.33333333333337
10
-5.25
20
533.33333333333348
10
0
20
533.33333333333348
10
0
20
503.00000000000006
10
-5.25
20
503.00000000000006
10
-5.25
20
500.00000000000006
10
0
20
500.00000000000006
10
0
20
469.66666666666669
10
-5.25
20
469.66666666666669
10
-5.25
20
466.66666666666674
10
0
20
466.66666666666674
10
0
20
436.33333333333337
10
-5.25
20
436.33333333333337
10
-5.25
20
433.33333333333343
10
0
20
433.33333333333343
10
0
20
403.00000000000006
10
-5.25
20
403.00000000000006
10
-5.25
20
400.00000000000006
10
0
20
400.00000000000006
10
0
20
369.66666666666669
10
-5.25
20
369.66666666666669
10
-5.25
20
366.66666666666674
10
0
20
366.66666666666674
10
0
20
336.33333333333337
10
-5.25
20
336.33333333333337
10
-5.25
20
333.33333333333343
10
0
20
333.33333333333343
10
0
20
303.00000000000011
10
-5.25
20
303.00000000000011
10
-5.25
20
300.00000000000006
10
0
20
300.00000000000006
10
0
20
269.66666666666669
10
-5.25
20
269.66666666666669
10
-5.25
20
266.66666666666674
10
0
20
266.66666666666674
10
0
20
236.3333333333334
10
-5.25
20
236.3333333333334
10
-5.25
20
233.33333333333337
10
0
20
233.33333333333337
10
0
20
203.00000000000006
10
-5.25
20
203.00000000000006
10
-5.25
20
200
10
0
20
200
10
0
20
169.66666666666669
10
-5.25
20
169.66666666666669
10
-5.25
20
166.66666666666671
10
0
20
166.66666666666671
10
0
20
136.3333333333334
10
-5.25
20
136.3333333333334
10
-5.25
20
133.33333333333329
10
0
20
133.33333333333329
10
0
20
102.99999999999997
10
-5.25
20
102.99999999999997
10
-5.25
20
100
10
0
20
100
10
0
20
69.666666666666686
10
-5.25
20
69.666666666666686
10
-5.25
20
66.666666666666714
10
0
20
66.666666666666714
10
0
20
36.3333333333334
10
-5.25
20
36.3333333333334
10
-5.25
20
33.333333333333286
10
0
20
33.333333333333286
10
0
20
2.9999999999999716
10
-5.25
20
2.9999999999999716
10
-5.25
20
0
10
-10
20
0
10
-10
20
836.33333333333337
10
-5.25
20
836.33333333333337
10
-5.25
20
833.33333333333348
10
0
20
833.33333333333348
10
0
20
803.00000000000011
10
-5.25
20
803.00000000000011
0
LWPOLYLINE
5
101
100
AcDbEntity
8
0
100
AcDbPolyline
90
104
70
1
43
0.0
10
-5.0700000000000003
20
2.8199999999999714
10
-5.0700000000000003
20
-0.17999999999999999
10
-10.18
20
-0.18000000000000682
10
-10.18
20
836.51333333333343
10
-5.0700000000000003
20
836.51333333333343
10
-5.0700000000000003
20
833.51333333333343
10
0.17999999999999999
20
833.51333333333343
10
0.18000000000000016
20
802.82000000000016
10
-5.0700000000000003
20
802.82000000000016
10
-5.0700000000000003
20
800.18000000000018
10
0.17999999999999999
20
800.18000000000018
10
0.18000000000000016
20
769.48666666666679
10
-5.0700000000000003
20
769.48666666666679
10
-5.0700000000000003
20
766.84666666666681
10
0.17999999999999999
20
766.84666666666681
10
0.18000000000000016
20
736.15333333333342
10
-5.0700000000000003
20
736.15333333333342
10
-5.0700000000000003
20
733.51333333333343
10
0.17999999999999999
20
733.51333333333343
10
0.18000000000000016
20
702.82000000000016
10
-5.0700000000000003
20
702.82000000000016
10
-5.0700000000000003
20
700.18000000000018
10
0.17999999999999999
20
700.18000000000018
10
0.18000000000000016
20
669.48666666666679
10
-5.0700000000000003
20
669.48666666666679
10
-5.0700000000000003
20
666.84666666666681
10
0.17999999999999999
20
666.84666666666681
10
0.18000000000000016
20
636.15333333333342
10
-5.0700000000000003
20
636.15333333333342
10
-5.0700000000000003
20
633.51333333333343
10
0.17999999999999999
20
633.51333333333343
10
0.18000000000000016
20
602.82000000000016
10
-5.0700000000000003
20
602.82000000000016
10
-5.0700000000000003
20
600.18000000000018
10
0.17999999999999999
20
600.18000000000018
10
0.18000000000000016
20
569.48666666666679
10
-5.0700000000000003
20
569.48666666666679
10
-5.0700000000000003
20
566.84666666666681
10
0.17999999999999999
20
566.84666666666681
10
0.18000000000000016
20
536.15333333333342
10
-5.0700000000000003
20
536.15333333333342
10
-5.0700000000000003
20
533.51333333333343
10
0.17999999999999999
20
533.51333333333343
10
0.18000000000000016
20
502.82000000000005
10
-5.0700000000000003
20
502.82000000000005
10
-5.0700000000000003
20
500.18000000000006
10
0.17999999999999999
20
500.18000000000006
10
0.18000000000000016
20
469.48666666666668
10
-5.0700000000000003
20
469.48666666666668
10
-5.0700000000000003
20
466.84666666666669
10
0.17999999999999999
20
466.84666666666669
10
0.18000000000000016
20
436.15333333333342
10
-5.0700000000000003
20
436.15333333333342
10
-5.0700000000000003
20
433.51333333333343
10
0.17999999999999999
20
433.51333333333343
10
0.18000000000000016
20
402.82000000000005
10
-5.0700000000000003
20
402.82000000000005
10
-5.0700000000000003
20
400.18000000000006
10
0.17999999999999999
20
400.18000000000006
10
0.18000000000000016
20
369.48666666666668
10
-5.0700000000000003
20
369.48666666666668
10
-5.0700000000000003
20
366.84666666666669
10
0.17999999999999999
20
366.84666666666669
10
0.18000000000000016
20
336.15333333333342
10
-5.0700000000000003
20
336.15333333333342
10
-5.0700000000000003
20
333.51333333333343
10
0.17999999999999999
20
333.51333333333343
10
0.18000000000000016
20
302.82000000000011
10
-5.0700000000000003
20
302.82000000000011
10
-5.0700000000000003
20
300.18000000000006
10
0.17999999999999999
20
300.18000000000006
10
0.18000000000000016
20
269.48666666666668
10
-5.0700000000000003
20
269.48666666666668
10
-5.0700000000000003
20
266.84666666666669
10
0.17999999999999999
20
266.84666666666669
10
0.18000000000000016
20
236.15333333333339
10
-5.0700000000000003
20
236.15333333333339
10
-5.0700000000000003
20
233.51333333333338
10
0.17999999999999999
20
233.51333333333338
10
0.18000000000000016
20
202.82000000000005
10
-5.0700000000000003
20
202.82000000000005
10
-5.0700000000000003
20
200.18000000000001
10
0.17999999999999999
20
200.18000000000001
10
0.18000000000000016
20
169.48666666666668
10
-5.0700000000000003
20
169.48666666666668
10
-5.0700000000000003
20
166.84666666666672
10
0.17999999999999999
20
166.84666666666672
10
0.18000000000000016
20
136.15333333333339
10
-5.0700000000000003
20
136.15333333333339
10
-5.0700000000000003
20
133.51333333333329
10
0.17999999999999999
20
133.51333333333329
10
0.18000000000000016
20
102.81999999999996
10
-5.0700000000000003
20
102.81999999999996
10
-5.0700000000000003
20
100.18000000000001
10
0.17999999999999999
20
100.18000000000001
10
0.18000000000000016
20
69.486666666666693
10
-5.0700000000000003
20
69.486666666666693
10
-5.0700000000000003
20
66.846666666666707
10
0.17999999999999999
20
66.846666666666707
10
0.18000000000000016
20
36.1533333333334
10
-5.0700000000000003
20
36.1533333333334
10
-5.0700000000000003
20
33.513333333333286
10
0.17999999999999999
20
33.513333333333286
10
0.18000000000000016
20
2.8199999999999714
0
ENDSEC
0
SECTION
2
OBJECTS
0
DICTIONARY
5
C
100
AcDbDictionary
3
ACAD_GROUP
350
D
3
ACAD_MLINESTYLE
350
17
0
DICTIONARY
5
D
100
AcDbDictionary
0
DICTIONARY
5
1A
330
C
100
AcDbDictionary
0
DICTIONARY
5
17
100
AcDbDictionary
0
ENDSEC
0
EOF
