0
SECTION
2
HEADER
9
$INSUNITS
70
4
9
$ACADVER
1
AC1014
9
$HANDSEED
5
FFFF
0
ENDSEC
0
SECTION
2
TABLES
0
TABLE
2
VPORT
5
8
100
AcDbSymbolTable
0
ENDTAB
0
TABLE
2
LTYPE
5
5
100
AcDbSymbolTable
0
LTYPE
5
14
100
AcDbSymbolTableRecord
100
AcDbLinetypeTableRecord
2
BYBLOCK
70
0
0
LTYPE
5
15
100
AcDbSymbolTableRecord
100
AcDbLinetypeTableRecord
2
BYLAYER
70
0
0
ENDTAB
0
TABLE
2
LAYER
5
2
100
AcDbSymbolTable
70
2
0
LAYER
5
50
100
AcDbSymbolTableRecord
100
AcDbLayerTableRecord
2
0
70
0
6
CONTINUOUS
0
ENDTAB
0
TABLE
2
STYLE
5
3
100
AcDbSymbolTable
70
1
0
STYLE
5
11
100
AcDbSymbolTableRecord
100
AcDbTextStyleTableRecord
2
STANDARD
70
0
0
ENDTAB
0
TABLE
2
VIEW
5
6
100
AcDbSymbolTable
70
0
0
ENDTAB
0
TABLE
2
UCS
5
7
100
AcDbSymbolTable
70
0
0
ENDTAB
0
TABLE
2
APPID
5
9
100
AcDbSymbolTable
70
2
0
APPID
5
12
100
AcDbSymbolTableRecord
100
AcDbRegAppTableRecord
2
ACAD
70
0
0
ENDTAB
0
TABLE
2
DIMSTYLE
5
A
100
AcDbSymbolTable
70
1
0
ENDTAB
0
TABLE
2
BLOCK_RECORD
5
1
100
AcDbSymbolTable
70
1
0
BLOCK_RECORD
5
1F
100
AcDbSymbolTableRecord
100
AcDbBlockTableRecord
2
*MODEL_SPACE
0
BLOCK_RECORD
5
1B
100
AcDbSymbolTableRecord
100
AcDbBlockTableRecord
2
*PAPER_SPACE
0
ENDTAB
0
ENDSEC
0
SECTION
2
BLOCKS
0
BLOCK
5
20
100
AcDbEntity
100
AcDbBlockBegin
2
*MODEL_SPACE
0
ENDBLK
5
21
100
AcDbEntity
100
AcDbBlockEnd
0
BLOCK
5
1C
100
AcDbEntity
100
AcDbBlockBegin
2
*PAPER_SPACE
0
ENDBLK
5
1D
100
AcDbEntity
100
AcDbBlockEnd
0
ENDSEC
0
SECTION
2
ENTITIES
0
LWPOLYLINE
5
100
100
AcDbEntity
8
0
100
AcDbPolyline
90
20
70
1
43
0.0
10
-0.49999999999999989
20
56.499999999999993
10
-0.49999999999999983
20
46.5
10
0
20
46.5
10
0
20
36.333333333333336
10
-5
20
36.333333333333336
10
-5
20
33.333333333333343
10
0
20
33.333333333333343
10
0
20
23.166666666666661
10
-0.49999999999999989
20
23.166666666666661
10
-0.49999999999999989
20
13.166666666666664
10
0
20
13.166666666666664
10
0
20
2.9999999999999982
10
-5
20
2.9999999999999982
10
-5
20
0
10
-10
20
0
10
-10
20
69.666666666666671
10
-5
20
69.666666666666671
10
-5
20
66.666666666666686
10
0
20
66.666666666666686
10
0
20
56.499999999999993
0
LWPOLYLINE
5
101
100
AcDbEntity
8
0
100
AcDbPolyline
90
20
70
1
43
0.0
10
-4.8200000000000003
20
2.8199999999999981
10
-4.8200000000000003
20
-0.17999999999999999
10
-10.18
20
-0.17999999999999794
10
-10.18
20
69.846666666666678
10
-4.8200000000000003
20
69.846666666666678
10
-4.8200000000000003
20
66.846666666666678
10
0.17999999999999999
20
66.846666666666678
10
0.17999999999999994
20
56.319999999999993
10
-0.31999999999999995
20
56.319999999999993
10
-0.31999999999999984
20
46.68
10
0.17999999999999999
20
46.68
10
0.18000000000000016
20
36.153333333333336
10
-4.8200000000000003
20
36.153333333333336
10
-4.8200000000000003
20
33.513333333333335
10
0.17999999999999999
20
33.513333333333335
10
0.18000000000000002
20
22.986666666666661
10
-0.31999999999999984
20
22.986666666666661
10
-0.31999999999999984
20
13.346666666666664
10
0.17999999999999999
20
13.346666666666664
10
0.18000000000000016
20
2.8199999999999981
0
ENDSEC
0
SECTION
2
OBJECTS
0
DICTIONARY
5
C
100
AcDbDictionary
3
ACAD_GROUP
350
D
3
ACAD_MLINESTYLE
350
17
0
DICTIONARY
5
D
100
AcDbDictionary
0
DICTIONARY
5
1A
330
C
100
AcDbDictionary
0
DICTIONARY
5
17
100
AcDbDictionary
0
ENDSEC
0
EOF
