0
SECTION
2
HEADER
9
$INSUNITS
70
4
9
$ACADVER
1
AC1014
9
$HANDSEED
5
FFFF
0
ENDSEC
0
SECTION
2
TABLES
0
TABLE
2
VPORT
5
8
100
AcDbSymbolTable
0
ENDTAB
0
TABLE
2
LTYPE
5
5
100
AcDbSymbolTable
0
LTYPE
5
14
100
AcDbSymbolTableRecord
100
AcDbLinetypeTableRecord
2
BYBLOCK
70
0
0
LTYPE
5
15
100
AcDbSymbolTableRecord
100
AcDbLinetypeTableRecord
2
BYLAYER
70
0
0
ENDTAB
0
TABLE
2
LAYER
5
2
100
AcDbSymbolTable
70
2
0
LAYER
5
50
100
AcDbSymbolTableRecord
100
AcDbLayerTableRecord
2
0
70
0
6
CONTINUOUS
0
ENDTAB
0
TABLE
2
STYLE
5
3
100
AcDbSymbolTable
70
1
0
STYLE
5
11
100
AcDbSymbolTableRecord
100
AcDbTextStyleTableRecord
2
STANDARD
70
0
0
ENDTAB
0
TABLE
2
VIEW
5
6
100
AcDbSymbolTable
70
0
0
ENDTAB
0
TABLE
2
UCS
5
7
100
AcDbSymbolTable
70
0
0
ENDTAB
0
TABLE
2
APPID
5
9
100
AcDbSymbolTable
70
2
0
APPID
5
12
100
AcDbSymbolTableRecord
100
AcDbRegAppTableRecord
2
ACAD
70
0
0
ENDTAB
0
TABLE
2
DIMSTYLE
5
A
100
AcDbSymbolTable
70
1
0
ENDTAB
0
TABLE
2
BLOCK_RECORD
5
1
100
AcDbSymbolTable
70
1
0
BLOCK_RECORD
5
1F
100
AcDbSymbolTableRecord
100
AcDbBlockTableRecord
2
*MODEL_SPACE
0
BLOCK_RECORD
5
1B
100
AcDbSymbolTableRecord
100
AcDbBlockTableRecord
2
*PAPER_SPACE
0
ENDTAB
0
ENDSEC
0
SECTION
2
BLOCKS
0
BLOCK
5
20
100
AcDbEntity
100
AcDbBlockBegin
2
*MODEL_SPACE
0
ENDBLK
5
21
100
AcDbEntity
100
AcDbBlockEnd
0
BLOCK
5
1C
100
AcDbEntity
100
AcDbBlockBegin
2
*PAPER_SPACE
0
ENDBLK
5
1D
100
AcDbEntity
100
AcDbBlockEnd
0
ENDSEC
0
SECTION
2
ENTITIES
0
LWPOLYLINE
5
100
100
AcDbEntity
8
0
100
AcDbPolyline
90
108
70
1
43
0.0
10
-19.99999999999984
20
432.33991491763896
10
0
20
432.33991491763896
10
0
20
423.39166666666671
10
-49.999999999999986
20
423.39166666666671
10
-49.999999999999986
20
413.39166666666671
10
0
20
413.39166666666671
10
0
20
390.05833333333334
10
-49.999999999999986
20
390.05833333333334
10
-49.999999999999986
20
380.05833333333334
10
0
20
380.05833333333334
10
0
20
356.72500000000008
10
-49.999999999999986
20
356.72500000000008
10
-49.999999999999986
20
346.72500000000008
10
0
20
346.72500000000008
10
0
20
323.39166666666671
10
-49.999999999999986
20
323.39166666666671
10
-49.999999999999986
20
313.39166666666677
10
0
20
313.39166666666677
10
0
20
290.05833333333339
10
-49.999999999999986
20
290.05833333333339
10
-49.999999999999986
20
280.05833333333339
10
0
20
280.05833333333339
10
0
20
256.72500000000002
10
-49.999999999999986
20
256.72500000000002
10
-49.999999999999986
20
246.72500000000002
10
0
20
246.72500000000002
10
0
20
223.39166666666671
10
-49.999999999999986
20
223.39166666666671
10
-49.999999999999986
20
213.39166666666671
10
0
20
213.39166666666671
10
0
20
190.05833333333339
10
-49.999999999999986
20
190.05833333333339
10
-49.999999999999986
20
180.05833333333339
10
0
20
180.05833333333339
10
0
20
156.72500000000002
10
-49.999999999999986
20
156.72500000000002
10
-49.999999999999986
20
146.72500000000002
10
0
20
146.72500000000002
10
0
20
123.39166666666671
10
-49.999999999999986
20
123.39166666666671
10
-49.999999999999986
20
113.39166666666671
10
0
20
113.39166666666671
10
0
20
90.058333333333351
10
-49.999999999999986
20
90.058333333333351
10
-49.999999999999986
20
80.058333333333351
10
0
20
80.058333333333351
10
8.8817841970012523e-15
20
56.724999999999994
10
-49.999999999999986
20
56.724999999999994
10
-49.999999999999986
20
46.724999999999994
10
6.2444115806393889e-15
20
46.724999999999994
10
0
20
23.391666666666637
10
-49.999999999999986
20
23.391666666666637
10
-49.999999999999986
20
13.391666666666637
10
0
20
13.391666666666637
10
0
20
0
10
-100
20
0
10
-100
20
836.78333333333342
10
0
20
836.78333333333342
10
0
20
823.39166666666688
10
-49.999999999999986
20
823.39166666666688
10
-49.999999999999986
20
813.39166666666688
10
0
20
813.39166666666688
10
0
20
790.05833333333362
10
-49.999999999999986
20
790.05833333333362
10
-49.999999999999986
20
780.05833333333362
10
0
20
780.05833333333362
10
0
20
756.72500000000014
10
-49.999999999999986
20
756.72500000000014
10
-49.999999999999986
20
746.72500000000014
10
0
20
746.72500000000014
10
0
20
723.39166666666688
10
-49.999999999999986
20
723.39166666666688
10
-49.999999999999986
20
713.39166666666688
10
0
20
713.39166666666688
10
0
20
690.05833333333362
10
-49.999999999999986
20
690.05833333333362
10
-49.999999999999986
20
680.05833333333362
10
0
20
680.05833333333362
10
0
20
656.72500000000014
10
-49.999999999999986
20
656.72500000000014
10
-49.999999999999986
20
646.72500000000014
10
0
20
646.72500000000014
10
0
20
623.39166666666677
10
-49.999999999999986
20
623.39166666666677
10
-49.999999999999986
20
613.39166666666677
10
0
20
613.39166666666677
10
0
20
590.05833333333339
10
-49.999999999999986
20
590.05833333333339
10
-49.999999999999986
20
580.05833333333339
10
0
20
580.05833333333339
10
0
20
556.72500000000002
10
-49.999999999999986
20
556.72500000000002
10
-49.999999999999986
20
546.72500000000002
10
0
20
546.72500000000002
10
0
20
523.39166666666665
10
-49.999999999999986
20
523.39166666666665
10
-49.999999999999986
20
513.39166666666665
10
0
20
513.39166666666665
10
0
20
490.05833333333334
10
-49.999999999999986
20
490.05833333333334
10
-49.999999999999986
20
480.05833333333334
10
0
20
480.05833333333334
10
0
20
456.72500000000008
10
-49.999999999999986
20
456.72500000000008
10
-49.999999999999986
20
446.72500000000008
10
0
20
446.72500000000008
10
0
20
435.78991491763895
10
-19.999999999999837
20
435.78991491763895
0
LWPOLYLINE
5
101
100
AcDbEntity
8
0
100
AcDbPolyline
90
108
70
1
43
0.0
10
0.17999999999999999
20
13.571666666666637
10
0.18000000000000682
20
-0.17999999999999999
10
-100.18000000000001
20
-0.18000000000000682
10
-100.18000000000001
20
836.96333333333337
10
0.17999999999999999
20
836.96333333333337
10
0.17999999999999794
20
823.21166666666682
10
-49.819999999999986
20
823.21166666666682
10
-49.819999999999986
20
813.57166666666683
10
0.17999999999999999
20
813.57166666666683
10
0.17999999999999794
20
789.87833333333356
10
-49.819999999999986
20
789.87833333333356
10
-49.819999999999986
20
780.23833333333357
10
0.17999999999999999
20
780.23833333333357
10
0.17999999999999794
20
756.54500000000007
10
-49.819999999999986
20
756.54500000000007
10
-49.819999999999986
20
746.9050000000002
10
0.17999999999999999
20
746.9050000000002
10
0.17999999999999794
20
723.21166666666682
10
-49.819999999999986
20
723.21166666666682
10
-49.819999999999986
20
713.57166666666683
10
0.17999999999999999
20
713.57166666666683
10
0.17999999999999794
20
689.87833333333356
10
-49.819999999999986
20
689.87833333333356
10
-49.819999999999986
20
680.23833333333357
10
0.17999999999999999
20
680.23833333333357
10
0.17999999999999794
20
656.54500000000007
10
-49.819999999999986
20
656.54500000000007
10
-49.819999999999986
20
646.9050000000002
10
0.17999999999999999
20
646.9050000000002
10
0.17999999999999794
20
623.21166666666682
10
-49.819999999999986
20
623.21166666666682
10
-49.819999999999986
20
613.57166666666683
10
0.17999999999999999
20
613.57166666666683
10
0.17999999999999794
20
589.87833333333344
10
-49.819999999999986
20
589.87833333333344
10
-49.819999999999986
20
580.23833333333346
10
0.17999999999999999
20
580.23833333333346
10
0.17999999999999794
20
556.54500000000007
10
-49.819999999999986
20
556.54500000000007
10
-49.819999999999986
20
546.90500000000009
10
0.17999999999999999
20
546.90500000000009
10
0.17999999999999794
20
523.2116666666667
10
-49.819999999999986
20
523.2116666666667
10
-49.819999999999986
20
513.57166666666672
10
0.17999999999999999
20
513.57166666666672
10
0.17999999999999794
20
489.87833333333333
10
-49.819999999999986
20
489.87833333333333
10
-49.819999999999986
20
480.23833333333334
10
0.17999999999999999
20
480.23833333333334
10
0.17999999999999794
20
456.54500000000007
10
-49.819999999999986
20
456.54500000000007
10
-49.819999999999986
20
446.90500000000009
10
0.17999999999999999
20
446.90500000000009
10
0.18000000000000016
20
435.60991491763895
10
-19.819999999999837
20
435.60991491763895
10
-19.81999999999984
20
432.51991491763897
10
0.17999999999999999
20
432.51991491763897
10
0.17999999999999794
20
423.2116666666667
10
-49.819999999999986
20
423.2116666666667
10
-49.819999999999986
20
413.57166666666672
10
0.17999999999999999
20
413.57166666666672
10
0.17999999999999794
20
389.87833333333333
10
-49.819999999999986
20
389.87833333333333
10
-49.819999999999986
20
380.23833333333334
10
0.17999999999999999
20
380.23833333333334
10
0.17999999999999794
20
356.54500000000007
10
-49.819999999999986
20
356.54500000000007
10
-49.819999999999986
20
346.90500000000009
10
0.17999999999999999
20
346.90500000000009
10
0.17999999999999794
20
323.2116666666667
10
-49.819999999999986
20
323.2116666666667
10
-49.819999999999986
20
313.57166666666677
10
0.17999999999999999
20
313.57166666666677
10
0.17999999999999794
20
289.87833333333339
10
-49.819999999999986
20
289.87833333333339
10
-49.819999999999986
20
280.2383333333334
10
0.17999999999999999
20
280.2383333333334
10
0.17999999999999794
20
256.54500000000002
10
-49.819999999999986
20
256.54500000000002
10
-49.819999999999986
20
246.90500000000003
10
0.17999999999999999
20
246.90500000000003
10
0.17999999999999794
20
223.2116666666667
10
-49.819999999999986
20
223.2116666666667
10
-49.819999999999986
20
213.57166666666672
10
0.17999999999999999
20
213.57166666666672
10
0.17999999999999794
20
189.87833333333339
10
-49.819999999999986
20
189.87833333333339
10
-49.819999999999986
20
180.2383333333334
10
0.17999999999999999
20
180.2383333333334
10
0.17999999999999794
20
156.54500000000002
10
-49.819999999999986
20
156.54500000000002
10
-49.819999999999986
20
146.90500000000003
10
0.17999999999999999
20
146.90500000000003
10
0.17999999999999794
20
123.2116666666667
10
-49.819999999999986
20
123.2116666666667
10
-49.819999999999986
20
113.57166666666672
10
0.17999999999999999
20
113.57166666666672
10
0.17999999999999794
20
89.878333333333345
10
-49.819999999999986
20
89.878333333333345
10
-49.819999999999986
20
80.238333333333358
10
0.17999999999999991
20
80.238333333333358
10
0.18000000000000682
20
56.544999999999995
10
-49.819999999999986
20
56.544999999999995
10
-49.819999999999986
20
46.904999999999994
10
0.18000000000000627
20
46.904999999999994
10
0.17999999999999794
20
23.211666666666638
10
-49.819999999999986
20
23.211666666666638
10
-49.819999999999986
20
13.571666666666637
0
ENDSEC
0
SECTION
2
OBJECTS
0
DICTIONARY
5
C
100
AcDbDictionary
3
ACAD_GROUP
350
D
3
ACAD_MLINESTYLE
350
17
0
DICTIONARY
5
D
100
AcDbDictionary
0
DICTIONARY
5
1A
330
C
100
AcDbDictionary
0
DICTIONARY
5
17
100
AcDbDictionary
0
ENDSEC
0
EOF
